<mxfile host="app.diagrams.net" modified="2023-01-27T16:53:16.348Z" agent="5.0 (Windows NT 10.0; Win64; x64) AppleWebKit/537.36 (KHTML, like Gecko) Chrome/109.0.0.0 Safari/537.36" etag="NJEFIpCVq6MbB-MtbBHk" version="20.8.13" type="github">
  <diagram name="Page-1" id="4-2ZoiHcfhYx_J80lWIu">
    <mxGraphModel dx="2868" dy="1528" grid="1" gridSize="10" guides="1" tooltips="1" connect="1" arrows="1" fold="1" page="1" pageScale="1" pageWidth="1200" pageHeight="1100" math="0" shadow="0">
      <root>
        <mxCell id="0" />
        <mxCell id="1" parent="0" />
        <mxCell id="hcFjnAH-e2oEKWQ587xF-1" value="rt" style="strokeWidth=1;shadow=0;dashed=0;align=center;html=1;shape=mxgraph.mockup.containers.browserWindow;rSize=0;strokeColor=#666666;strokeColor2=#008cff;strokeColor3=#c4c4c4;mainText=,;recursiveResize=0;" vertex="1" parent="1">
          <mxGeometry x="53.75" y="110" width="1090" height="970" as="geometry" />
        </mxCell>
        <mxCell id="hcFjnAH-e2oEKWQ587xF-2" value="Spotify Clone" style="strokeWidth=1;shadow=0;dashed=0;align=center;html=1;shape=mxgraph.mockup.containers.anchor;fontSize=17;fontColor=#666666;align=left;" vertex="1" parent="hcFjnAH-e2oEKWQ587xF-1">
          <mxGeometry x="60" y="12" width="110" height="26" as="geometry" />
        </mxCell>
        <mxCell id="hcFjnAH-e2oEKWQ587xF-3" value="https://localhost:4000/" style="strokeWidth=1;shadow=0;dashed=0;align=center;html=1;shape=mxgraph.mockup.containers.anchor;rSize=0;fontSize=17;fontColor=#666666;align=left;" vertex="1" parent="hcFjnAH-e2oEKWQ587xF-1">
          <mxGeometry x="130" y="60" width="250" height="26" as="geometry" />
        </mxCell>
        <mxCell id="hcFjnAH-e2oEKWQ587xF-4" value="" style="rounded=0;whiteSpace=wrap;html=1;rotation=90;" vertex="1" parent="hcFjnAH-e2oEKWQ587xF-1">
          <mxGeometry x="-332.96" y="442.97" width="845.93" height="180" as="geometry" />
        </mxCell>
        <mxCell id="hcFjnAH-e2oEKWQ587xF-5" value="&lt;font style=&quot;font-size: 21px;&quot;&gt;LINKS&lt;/font&gt;" style="text;html=1;strokeColor=none;fillColor=none;align=center;verticalAlign=middle;whiteSpace=wrap;rounded=0;" vertex="1" parent="hcFjnAH-e2oEKWQ587xF-1">
          <mxGeometry x="20" y="130" width="120" height="110" as="geometry" />
        </mxCell>
        <mxCell id="hcFjnAH-e2oEKWQ587xF-6" value="&lt;font style=&quot;font-size: 21px;&quot;&gt;Local&lt;br&gt;Playlists&lt;br&gt;&lt;/font&gt;" style="text;html=1;strokeColor=none;fillColor=none;align=center;verticalAlign=middle;whiteSpace=wrap;rounded=0;" vertex="1" parent="hcFjnAH-e2oEKWQ587xF-1">
          <mxGeometry x="20" y="270" width="120" height="110" as="geometry" />
        </mxCell>
        <mxCell id="hcFjnAH-e2oEKWQ587xF-7" value="" style="rounded=1;whiteSpace=wrap;html=1;fontSize=21;" vertex="1" parent="hcFjnAH-e2oEKWQ587xF-1">
          <mxGeometry x="200" y="130" width="580" height="60" as="geometry" />
        </mxCell>
        <mxCell id="hcFjnAH-e2oEKWQ587xF-8" value="Main Search Bar" style="text;html=1;strokeColor=none;fillColor=none;align=center;verticalAlign=middle;whiteSpace=wrap;rounded=0;fontSize=21;" vertex="1" parent="hcFjnAH-e2oEKWQ587xF-1">
          <mxGeometry x="210" y="145" width="530" height="30" as="geometry" />
        </mxCell>
        <mxCell id="hcFjnAH-e2oEKWQ587xF-9" value="" style="rounded=0;whiteSpace=wrap;html=1;fontSize=21;" vertex="1" parent="hcFjnAH-e2oEKWQ587xF-1">
          <mxGeometry x="950" y="130" width="120" height="90" as="geometry" />
        </mxCell>
        <mxCell id="hcFjnAH-e2oEKWQ587xF-10" value="Logged in user menu" style="text;html=1;strokeColor=none;fillColor=none;align=center;verticalAlign=middle;whiteSpace=wrap;rounded=0;fontSize=21;" vertex="1" parent="hcFjnAH-e2oEKWQ587xF-1">
          <mxGeometry x="980" y="160" width="60" height="30" as="geometry" />
        </mxCell>
        <mxCell id="hcFjnAH-e2oEKWQ587xF-29" value="" style="whiteSpace=wrap;html=1;aspect=fixed;" vertex="1" parent="hcFjnAH-e2oEKWQ587xF-1">
          <mxGeometry x="346.25" y="260" width="450" height="450" as="geometry" />
        </mxCell>
        <mxCell id="hcFjnAH-e2oEKWQ587xF-30" value="&lt;font style=&quot;font-size: 21px;&quot;&gt;Any page from the website&lt;/font&gt;" style="text;html=1;strokeColor=none;fillColor=none;align=center;verticalAlign=middle;whiteSpace=wrap;rounded=0;" vertex="1" parent="hcFjnAH-e2oEKWQ587xF-1">
          <mxGeometry x="406.25" y="300" width="300" height="30" as="geometry" />
        </mxCell>
        <mxCell id="hcFjnAH-e2oEKWQ587xF-31" value="" style="rounded=0;whiteSpace=wrap;html=1;fontSize=21;" vertex="1" parent="hcFjnAH-e2oEKWQ587xF-1">
          <mxGeometry y="840" width="1090" height="130" as="geometry" />
        </mxCell>
        <mxCell id="hcFjnAH-e2oEKWQ587xF-32" value="" style="triangle;whiteSpace=wrap;html=1;fontSize=21;" vertex="1" parent="hcFjnAH-e2oEKWQ587xF-1">
          <mxGeometry x="512.97" y="885" width="33.75" height="40" as="geometry" />
        </mxCell>
        <mxCell id="hcFjnAH-e2oEKWQ587xF-34" value="" style="triangle;whiteSpace=wrap;html=1;fontSize=21;" vertex="1" parent="hcFjnAH-e2oEKWQ587xF-1">
          <mxGeometry x="596.25" y="885" width="33.75" height="40" as="geometry" />
        </mxCell>
        <mxCell id="hcFjnAH-e2oEKWQ587xF-35" value="" style="rounded=0;whiteSpace=wrap;html=1;fontSize=21;rotation=90;" vertex="1" parent="hcFjnAH-e2oEKWQ587xF-1">
          <mxGeometry x="613.75" y="897.5" width="40" height="15" as="geometry" />
        </mxCell>
        <mxCell id="hcFjnAH-e2oEKWQ587xF-36" value="" style="triangle;whiteSpace=wrap;html=1;fontSize=21;rotation=-180;" vertex="1" parent="hcFjnAH-e2oEKWQ587xF-1">
          <mxGeometry x="426.25" y="885" width="33.75" height="40" as="geometry" />
        </mxCell>
        <mxCell id="hcFjnAH-e2oEKWQ587xF-37" value="" style="rounded=0;whiteSpace=wrap;html=1;fontSize=21;rotation=90;" vertex="1" parent="hcFjnAH-e2oEKWQ587xF-1">
          <mxGeometry x="406.25" y="897.5" width="40" height="15" as="geometry" />
        </mxCell>
        <mxCell id="hcFjnAH-e2oEKWQ587xF-40" value="" style="rounded=0;whiteSpace=wrap;html=1;fontSize=21;" vertex="1" parent="hcFjnAH-e2oEKWQ587xF-1">
          <mxGeometry x="36.25" y="865" width="220" height="80" as="geometry" />
        </mxCell>
        <mxCell id="hcFjnAH-e2oEKWQ587xF-41" value="Song information" style="text;html=1;strokeColor=none;fillColor=none;align=center;verticalAlign=middle;whiteSpace=wrap;rounded=0;fontSize=21;" vertex="1" parent="hcFjnAH-e2oEKWQ587xF-1">
          <mxGeometry x="46.25" y="890" width="193.75" height="30" as="geometry" />
        </mxCell>
        <mxCell id="hcFjnAH-e2oEKWQ587xF-42" value="The footer is present when a song is played from any page anywhere" style="text;html=1;strokeColor=none;fillColor=none;align=center;verticalAlign=middle;whiteSpace=wrap;rounded=0;fontSize=21;" vertex="1" parent="1">
          <mxGeometry x="210" y="50" width="780" height="30" as="geometry" />
        </mxCell>
      </root>
    </mxGraphModel>
  </diagram>
</mxfile>
